<?xml version="1.0" encoding="utf-8"?>
<svg xmlns="http://www.w3.org/2000/svg" version="1.1" width="1178" height="1178">
<title>Example LOGO</title>
<desc>Du LOGO</desc>
<defs>
<g id="square"><line x1="0.000001" y1="100.000000" x2="0.000000" y2="0.000000" stroke="red"/>
<line x1="100.000001" y1="100.000000" x2="0.000001" y2="100.000000" stroke="red"/>
<line x1="100.000000" y1="0.000000" x2="100.000001" y2="100.000000" stroke="red"/>
<line x1="0.000000" y1="0.000000" x2="100.000000" y2="0.000000" stroke="red"/>
</g></defs>
<use x="451.668876" y="0.000001" href="#square"/>
<use x="289.989269" y="52.532891" href="#square"/>
<use x="152.456380" y="152.456385" href="#square"/>
<use x="52.532888" y="289.989274" href="#square"/>
<use x="0.000000" y="451.668882" href="#square"/>
<use x="0.000001" y="621.668882" href="#square"/>
<use x="52.532891" y="783.348490" href="#square"/>
<use x="152.456384" y="920.881378" href="#square"/>
<use x="289.989274" y="1020.804871" href="#square"/>
<use x="451.668882" y="1073.337759" href="#square"/>
<use x="621.668882" y="1073.337758" href="#square"/>
<use x="783.348489" y="1020.804869" href="#square"/>
<use x="920.881378" y="920.881376" href="#square"/>
<use x="1020.804871" y="783.348486" href="#square"/>
<use x="1073.337759" y="621.668878" href="#square"/>
<use x="1073.337759" y="451.668878" href="#square"/>
<use x="1020.804870" y="289.989271" href="#square"/>
<use x="920.881377" y="152.456382" href="#square"/>
<use x="783.348488" y="52.532889" href="#square"/>
<use x="621.668880" y="0.000000" href="#square"/>
<rect x="621.668880" y="0.000000" width="100.000000" height="100.000000"/>
</svg>